<svg xmlns="http://www.w3.org/2000/svg" viewBox="0 0 32 32">
<path style="fill:#f4bf75;" d="M7.25,4.75h2.5v2.5h-2.5v6.25c0,1.38-1.12,2.5-2.5,2.5c1.38,0,2.5,1.12,2.5,2.5v6.25h2.5v2.5h-2.5
  c-1.34-0.34-2.5-1.13-2.5-2.5v-5c0-1.38-1.12-2.5-2.5-2.5H1v-2.5h1.25c1.38,0,2.5-1.12,2.5-2.5v-5C4.75,5.87,5.87,4.75,7.25,4.75
   M24.75,4.75c1.38,0,2.5,1.12,2.5,2.5v5c0,1.38,1.12,2.5,2.5,2.5H31v2.5h-1.25c-1.38,0-2.5,1.12-2.5,2.5v5c0,1.38-1.12,2.5-2.5,2.5
  h-2.5v-2.5h2.5V18.5c0-1.38,1.12-2.5,2.5-2.5c-1.38,0-2.5-1.12-2.5-2.5V7.25h-2.5v-2.5H24.75 M16,19.75c0.69,0,1.25,0.56,1.25,1.25
  c0,0.69-0.56,1.25-1.25,1.25c-0.69,0-1.25-0.56-1.25-1.25C14.75,20.31,15.31,19.75,16,19.75 M11,19.75c0.69,0,1.25,0.56,1.25,1.25
  c0,0.69-0.56,1.25-1.25,1.25S9.75,21.69,9.75,21C9.75,20.31,10.31,19.75,11,19.75 M21,19.75c0.69,0,1.25,0.56,1.25,1.25
  c0,0.69-0.56,1.25-1.25,1.25c-0.69,0-1.25-0.56-1.25-1.25C19.75,20.31,20.31,19.75,21,19.75z"/>
</svg>
