<svg xmlns="http://www.w3.org/2000/svg" viewBox="0 0 32 32">
  <path style="fill:#f4bf75;" d="M7.8,5.5h2.3v2.3H7.8v5.8c0,1.3-1,2.3-2.3,2.3c1.3,0,2.3,1,2.3,2.3v5.8h2.3v2.3H7.8c-1.3-0.3-2.3-1.1-2.3-2.3
    v-4.7c0-1.3-1-2.3-2.3-2.3H2v-2.3h1.2c1.3,0,2.3-1,2.3-2.3V7.8C5.5,6.5,6.5,5.5,7.8,5.5 M24.2,5.5c1.3,0,2.3,1,2.3,2.3v4.7
    c0,1.3,1,2.3,2.3,2.3H30v2.3h-1.2c-1.3,0-2.3,1-2.3,2.3v4.7c0,1.3-1,2.3-2.3,2.3h-2.3v-2.3h2.3v-5.8c0-1.3,1-2.3,2.3-2.3
    c-1.3,0-2.3-1-2.3-2.3V7.8h-2.3V5.5H24.2 M16,19.5c0.6,0,1.2,0.5,1.2,1.2c0,0.6-0.5,1.2-1.2,1.2c-0.6,0-1.2-0.5-1.2-1.2
    C14.8,20,15.4,19.5,16,19.5 M11.3,19.5c0.6,0,1.2,0.5,1.2,1.2c0,0.6-0.5,1.2-1.2,1.2c-0.6,0-1.2-0.5-1.2-1.2
    C10.2,20,10.7,19.5,11.3,19.5 M20.7,19.5c0.6,0,1.2,0.5,1.2,1.2c0,0.6-0.5,1.2-1.2,1.2c-0.6,0-1.2-0.5-1.2-1.2
    C19.5,20,20,19.5,20.7,19.5z"/>
</svg>
