<svg xmlns="http://www.w3.org/2000/svg" viewBox="0 0 32 32">
  <path style="fill:#8892bf;" d="M3.26,11.7h4.45c1.31,0.01,2.25,0.39,2.84,1.13c0.59,0.74,0.78,1.75,0.58,3.04c-0.08,0.59-0.25,1.16-0.51,1.73
    c-0.25,0.56-0.61,1.07-1.06,1.53c-0.55,0.58-1.15,0.94-1.78,1.1c-0.63,0.16-1.28,0.23-1.96,0.23H3.83L3.2,23.6H0.89L3.26,11.7
    L3.26,11.7 M5.2,13.59l-1,4.98c0.07,0.01,0.13,0.02,0.2,0.02c0.08,0,0.16,0,0.23,0c1.06,0.01,1.95-0.09,2.66-0.32
    c0.71-0.23,1.18-1.04,1.43-2.42c0.2-1.16,0-1.83-0.6-2.01c-0.59-0.18-1.32-0.26-2.21-0.25c-0.13,0.01-0.26,0.02-0.38,0.02
    c-0.11,0-0.23,0-0.35,0L5.2,13.59"/>
  <path style="fill:#8892bf;" d="M13.76,8.53h2.29L15.4,11.7h2.06c1.13,0.02,1.97,0.25,2.52,0.7c0.56,0.44,0.73,1.28,0.5,2.52l-1.11,5.53h-2.32
    l1.06-5.28c0.11-0.55,0.08-0.95-0.1-1.18c-0.18-0.23-0.56-0.35-1.15-0.35l-1.84-0.02l-1.36,6.82h-2.29L13.76,8.53L13.76,8.53"/>
  <path style="fill:#8892bf;" d="M22.94,11.7h4.45c1.31,0.01,2.25,0.39,2.84,1.13c0.59,0.74,0.78,1.75,0.58,3.04c-0.08,0.59-0.25,1.16-0.51,1.73
    c-0.25,0.56-0.61,1.07-1.06,1.53c-0.55,0.58-1.15,0.94-1.78,1.1c-0.63,0.16-1.28,0.23-1.96,0.23h-1.99l-0.63,3.15h-2.31L22.94,11.7
    L22.94,11.7 M24.89,13.59l-1,4.98c0.07,0.01,0.13,0.02,0.2,0.02c0.08,0,0.16,0,0.23,0c1.06,0.01,1.95-0.09,2.66-0.32
    c0.71-0.23,1.18-1.04,1.43-2.42c0.2-1.16,0-1.83-0.6-2.01c-0.59-0.18-1.32-0.26-2.21-0.25c-0.13,0.01-0.26,0.02-0.38,0.02
    c-0.11,0-0.23,0-0.35,0L24.89,13.59"/>
</svg>
