<svg xmlns="http://www.w3.org/2000/svg" viewBox="0 0 32 32">
  <title>file_type_twig</title>
  <path style="fill:#90a959;" d="M25.2,2.3c-3.4,0-6.1,13.6-6,19.2c1.1-3.8,2.9-6.1,4.7-6.5c-3,3.2-3.9,8.8-3.6,14.1c-2,0.5-3.4,0.6-3.9,0.3l0-2
    c0.1,0.2,0.1,0.4,0.3,0.4c0.3-4.4-0.7-8.2-4.5-9.2c2.4-0.1,3.8,0.9,5,3.5c0.1-10.5,3.6-20.3,8-20.2c0.7,0,1.3,0.5,2,1.3
    C26.6,2.8,25.7,2.3,25.2,2.3z M9.1,23c-0.9-2.1-2.8-3.8-4.3-3.9c2.2,2,3.9,5.8,3.9,9.9c-0.4-1-0.4-1.1-0.6-1.7
    c0,0.9,0.2,1.2,0.2,2.6c1.2,0.2,2.4,0.1,3.4-0.4c-0.2-3.2-0.2-6.1,2.5-6.4c-1.4-0.1-2.1,0.2-3,0.9c-0.3-5.5-1.3-11.3-2.4-16.3
    C8.9,13.7,9.1,19.3,9.1,23z"/>
</svg>
